<svg xmlns="http://www.w3.org/2000/svg" viewBox="0 0 100 100">
  <style>
    .ring { fill: #f4f3ef; }
    .letter { fill: #0a0a0b; }
    @media (prefers-color-scheme: light) {
      .ring { fill: #0a0a0b; }
      .letter { fill: #f7f6f2; }
    }
  </style>
  <circle class="ring" cx="50" cy="50" r="48"/>
  <path class="letter" transform="translate(27.91, 74.08) scale(0.095, -0.095)" d="M89 -9Q53 -9 33.0 22.0Q13 53 13 113Q13 170 29.0 227.5Q45 285 73.0 337.0Q101 389 136.5 429.0Q172 469 211.5 492.5Q251 516 290 516Q309 516 326.0 508.5Q343 501 354 485Q360 476 366 476Q372 476 378 485Q389 501 396.0 505.5Q403 510 409 510Q422 510 419 496L330 113Q315 48 350 48Q373 48 391.5 79.0Q410 110 429 175Q432 186 442 186Q449 186 451.0 180.0Q453 174 451 166Q432 72 400.0 31.5Q368 -9 323 -9Q284 -9 267.5 24.0Q251 57 264 114L277 169Q279 176 274.5 177.0Q270 178 267 172Q212 71 169.5 31.0Q127 -9 89 -9ZM114 42Q138 42 167.0 71.0Q196 100 224.5 146.0Q253 192 277.0 245.0Q301 298 315.5 347.0Q330 396 330 430Q330 491 287 491Q261 491 232.0 467.5Q203 444 176.5 404.0Q150 364 128.5 313.5Q107 263 94.0 208.5Q81 154 81 102Q81 67 89.5 54.5Q98 42 114 42Z"/>
</svg>